<?xml version="1.0" standalone="no"?>
<!DOCTYPE svg PUBLIC "-//W3C//DTD SVG 20010904//EN"
 "http://www.w3.org/TR/2001/REC-SVG-20010904/DTD/svg10.dtd">
<svg version="1.0" xmlns="http://www.w3.org/2000/svg"
 width="700.000000pt" height="700.000000pt" viewBox="0 0 700.000000 700.000000"
 preserveAspectRatio="xMidYMid meet">
<metadata>
Created by potrace 1.11, written by Peter Selinger 2001-2013
</metadata>
<g transform="translate(0.000000,700.000000) scale(0.100000,-0.100000)"
fill="#000000" stroke="none">
<path d="M630 6984 c-98 -21 -175 -52 -255 -105 -165 -108 -278 -261 -342
-466 l-28 -88 0 -2825 0 -2825 28 -88 c95 -304 314 -513 599 -571 69 -14 363
-16 2868 -16 2505 0 2799 2 2868 16 285 58 504 267 599 571 l28 88 0 2825 0
2825 -28 88 c-95 304 -314 513 -599 571 -69 14 -362 16 -2875 15 -2359 0
-2808 -3 -2863 -15z m5608 -677 c23 -15 54 -46 69 -69 27 -40 28 -48 31 -185
l4 -143 -2841 0 -2841 0 0 123 c0 67 5 139 11 161 13 47 82 118 129 133 25 8
768 11 2716 10 l2680 -2 42 -28z m-2525 -2072 c21 -10 54 -36 73 -59 18 -23
160 -248 315 -501 155 -253 285 -463 288 -468 4 -4 137 205 297 464 159 259
304 489 323 511 51 60 98 78 206 78 103 0 150 -17 202 -71 67 -70 63 -13 63
-1031 0 -878 -1 -925 -19 -963 -39 -84 -120 -135 -216 -135 -97 0 -171 47
-211 135 l-24 50 0 565 c0 471 -2 562 -13 550 -8 -8 -101 -150 -207 -315 -107
-165 -207 -317 -223 -338 -88 -114 -250 -122 -343 -15 -16 18 -110 158 -209
311 l-180 277 -5 -528 c-5 -520 -5 -528 -27 -568 -43 -80 -116 -124 -208 -124
-67 0 -118 20 -163 63 -70 67 -66 31 -72 672 l-5 580 -122 -185 c-67 -102
-168 -257 -226 -345 -111 -170 -149 -208 -224 -226 -63 -15 -138 6 -188 52
-25 23 -127 170 -250 359 -114 176 -211 323 -216 326 -5 3 -9 -229 -9 -558 0
-524 -2 -566 -19 -603 -42 -92 -127 -140 -234 -133 -111 7 -186 76 -207 190
-7 37 -10 361 -8 939 3 875 3 884 24 929 47 101 116 140 249 140 81 0 95 -3
141 -29 28 -16 62 -44 76 -63 14 -18 154 -244 313 -501 158 -258 288 -467 290
-465 2 2 134 217 295 478 160 261 306 490 323 508 47 50 83 65 167 71 87 7
130 1 183 -24z"/>
</g>
</svg>
